<svg width="181" height="181" viewBox="0 0 181 181" fill="none" xmlns="http://www.w3.org/2000/svg">
<path d="M7.54175 158.375L90.5001 15.0835L173.458 158.375H7.54175ZM33.5605 143.292H147.44L90.5001 45.2502L33.5605 143.292ZM90.5001 135.75C92.6369 135.75 94.428 135.027 95.8735 133.582C97.319 132.136 98.0417 130.345 98.0417 128.209C98.0417 126.072 97.319 124.281 95.8735 122.835C94.428 121.39 92.6369 120.667 90.5001 120.667C88.3633 120.667 86.5721 121.39 85.1266 122.835C83.6812 124.281 82.9584 126.072 82.9584 128.209C82.9584 130.345 83.6812 132.136 85.1266 133.582C86.5721 135.027 88.3633 135.75 90.5001 135.75ZM82.9584 113.125H98.0417V75.4168H82.9584V113.125Z" fill="#141414"/>
</svg>
